# xmcd CD database file
#
# Track frame offsets:
#	150
#	13497
#	28282
#	41287
#	51800
#	63745
#	74342
#	90182
#	104957
#	121130
#
# Disc length: 1797 seconds
#
# Revision: 0
# Processed by: cddbd v1.4PL0 Copyright (c) Steve Scherf et al.
# Submitted via: CDex 1.40Release
#
DISCID=8d07030a
DTITLE=George Jones and Tammy Wynette - Back 2 Back
DYEAR=1900
DGENRE=Country
TTITLE0=D-I-V-O-R-C-E
TTITLE1=He Stopped Loving Her Today
TTITLE2=Womanhood
TTITLE3=Her Name Is
TTITLE4=Till I Get It Right
TTITLE5=Nothing Ever Hurt Me
TTITLE6=The Wonders You Perform
TTITLE7=Who's Gonna Fill Their Shows
TTITLE8=My Elusive Dream
TTITLE9=Golden Ring
EXTD=ID3G: 2
EXTT0=
EXTT1=
EXTT2=
EXTT3=
EXTT4=
EXTT5=
EXTT6=
EXTT7=
EXTT8=
EXTT9=
PLAYORDER=
